<svg xmlns="http://www.w3.org/2000/svg" viewBox="0 0 280.28 39.25"><defs><style>.cls-1{fill:#2491eb;stroke:#2491eb;stroke-miterlimit:10;}.cls-1,.cls-2{fill-rule:evenodd;}.cls-2{fill:#555;}</style></defs><title>email-textAsset 1xhdpi</title><g id="Layer_2" data-name="Layer 2"><g id="Layer_1-2" data-name="Layer 1"><path class="cls-1" d="M24.87,15.79h0L27.08,12l2.22,3.85h4.41L29.28,8.15l-2.2-3.83L22.66,12l-2.22,3.85-2.21,3.82-.25.44L16,23.46H33.71l2.21,3.82h0l2.21,3.83h0l2.2,3.82H18.23L16,38.75H42.54l2.21-3.82-2.21-3.82h0l-2.21-3.83-2.2-3.82-.81-1.39h0l-1.4-2.43H22.65v0l2.21-3.82Zm-11,19.14-2.21,3.82H2.78L.58,34.93,20.46.5h4.41L22.66,4.32,15.9,16,5,34.93H9.41l2.2-3.82,2.21-3.83H31.51l2.2,3.83H16Z"/><path class="cls-2" d="M64,13.76a5.78,5.78,0,0,1,4,1.24,4.63,4.63,0,0,1,1.42,3.68v.63a23,23,0,0,0-2.52-.56,19.15,19.15,0,0,0-3-.21,11.69,11.69,0,0,0-3.12.39,7.46,7.46,0,0,0-2.45,1.12,4.91,4.91,0,0,0-1.59,1.83,5.54,5.54,0,0,0-.56,2.53,5,5,0,0,0,.58,2.48,5.42,5.42,0,0,0,1.53,1.77,7,7,0,0,0,2.17,1.06,8.86,8.86,0,0,0,2.46.35,7.72,7.72,0,0,0,4-.94A8.84,8.84,0,0,0,69.35,27v2.73h2.58v-11a7,7,0,0,0-2-5.43,8.08,8.08,0,0,0-5.69-1.84,14.35,14.35,0,0,0-3.53.4,18.48,18.48,0,0,0-3,1.1l.8,2.21a16.69,16.69,0,0,1,2.57-1A11,11,0,0,1,64,13.76Zm.12,6.77a16.39,16.39,0,0,1,3,.25c.88.16,1.65.34,2.32.52v1.75a4.18,4.18,0,0,1-.47,2,4.77,4.77,0,0,1-1.29,1.54,6.1,6.1,0,0,1-1.91,1,7.25,7.25,0,0,1-2.36.37,6.16,6.16,0,0,1-1.72-.24A4.86,4.86,0,0,1,60.19,27a3.38,3.38,0,0,1-1-1.14,3,3,0,0,1-.37-1.53,3.26,3.26,0,0,1,1.36-2.76,6.4,6.4,0,0,1,3.9-1Zm32.62.11a10.16,10.16,0,0,0-.73-4,8.8,8.8,0,0,0-2-2.95,8.46,8.46,0,0,0-5.94-2.47,7.43,7.43,0,0,0-2.28.33,8.26,8.26,0,0,0-1.87.88,7.71,7.71,0,0,0-1.52,1.27,12.86,12.86,0,0,0-1.24,1.54V11.63H78.48V35.28h2.69v-9a11.7,11.7,0,0,0,1.2,1.47,8.56,8.56,0,0,0,1.52,1.22,7.75,7.75,0,0,0,1.89.84,8,8,0,0,0,2.3.31,8.27,8.27,0,0,0,3.2-.64A8.46,8.46,0,0,0,94,27.57,9.07,9.07,0,0,0,96,24.62a10.16,10.16,0,0,0,.73-4Zm-2.76,0a8.24,8.24,0,0,1-.5,2.94,6.53,6.53,0,0,1-1.37,2.19,5.57,5.57,0,0,1-2,1.35,6.42,6.42,0,0,1-2.46.48,6,6,0,0,1-2.43-.51,6.83,6.83,0,0,1-2.1-1.4,6.73,6.73,0,0,1-1.47-2.21,7.45,7.45,0,0,1-.54-2.87,7.31,7.31,0,0,1,.54-2.85,6.64,6.64,0,0,1,1.47-2.19,7,7,0,0,1,2.1-1.41,6.18,6.18,0,0,1,2.43-.5,6.11,6.11,0,0,1,2.44.49,6,6,0,0,1,2,1.4,6.9,6.9,0,0,1,1.38,2.21,8,8,0,0,1,.5,2.88Zm26.78,0a10.16,10.16,0,0,0-.74-4A8.93,8.93,0,0,0,118,13.71a8.5,8.5,0,0,0-5.94-2.47,7.5,7.5,0,0,0-2.29.33,8.26,8.26,0,0,0-1.87.88,8,8,0,0,0-1.52,1.27,13.93,13.93,0,0,0-1.24,1.54V11.63h-2.69V35.28h2.69v-9a11,11,0,0,0,1.21,1.47,8.22,8.22,0,0,0,1.52,1.22,7.51,7.51,0,0,0,1.88.84,8,8,0,0,0,2.31.31,8.22,8.22,0,0,0,3.19-.64,8.46,8.46,0,0,0,2.76-1.86A8.91,8.91,0,0,0,120,24.62a10.16,10.16,0,0,0,.74-4Zm-2.76,0a8,8,0,0,1-.51,2.94,6.51,6.51,0,0,1-1.36,2.19,5.6,5.6,0,0,1-2,1.35,6.42,6.42,0,0,1-2.46.48,6,6,0,0,1-2.43-.51,6.83,6.83,0,0,1-2.1-1.4,6.71,6.71,0,0,1-1.46-2.21,7.45,7.45,0,0,1-.54-2.87,7.31,7.31,0,0,1,.54-2.85,6.62,6.62,0,0,1,1.46-2.19,7,7,0,0,1,2.1-1.41,6.18,6.18,0,0,1,2.43-.5,6.08,6.08,0,0,1,2.44.49,5.91,5.91,0,0,1,2,1.4,6.9,6.9,0,0,1,1.38,2.21,7.77,7.77,0,0,1,.51,2.88Zm21.35,3.57v-.07A4.05,4.05,0,0,0,138.8,22a5.17,5.17,0,0,0-1.34-1.49,8.41,8.41,0,0,0-1.84-1c-.67-.28-1.35-.52-2-.73s-1.06-.33-1.56-.51a9.86,9.86,0,0,1-1.33-.56,3.57,3.57,0,0,1-.92-.66,1.23,1.23,0,0,1-.35-.86v-.07a1.61,1.61,0,0,1,.68-1.32,3,3,0,0,1,1.9-.53,7.88,7.88,0,0,1,2.52.47A14.31,14.31,0,0,1,137.23,16l1.68-3a12.77,12.77,0,0,0-3.25-1.53,11.56,11.56,0,0,0-3.53-.56,8.59,8.59,0,0,0-2.57.38,6.26,6.26,0,0,0-2.09,1.12,5.18,5.18,0,0,0-1.4,1.78,5.29,5.29,0,0,0-.51,2.34v.07a4.29,4.29,0,0,0,.53,2.22,4.93,4.93,0,0,0,1.34,1.5,7.46,7.46,0,0,0,1.85,1c.69.25,1.37.49,2.05.7l1.55.47a7.85,7.85,0,0,1,1.33.52,3.33,3.33,0,0,1,.91.68,1.36,1.36,0,0,1,.33.91v.07a1.69,1.69,0,0,1-.75,1.45,3.59,3.59,0,0,1-2.12.54,8.62,8.62,0,0,1-3-.57,12.28,12.28,0,0,1-3.06-1.7l-1.89,2.87a13.33,13.33,0,0,0,3.79,2.06,12.63,12.63,0,0,0,4,.7,9.77,9.77,0,0,0,2.69-.37,6.55,6.55,0,0,0,2.18-1.08,5,5,0,0,0,1.45-1.8,5.78,5.78,0,0,0,.52-2.55Zm23.77-3.78a9.53,9.53,0,0,0-2.77-6.79,9.65,9.65,0,0,0-3.11-2.06,10.12,10.12,0,0,0-3.93-.75,9.77,9.77,0,0,0-3.93.77,9.61,9.61,0,0,0-5.92,8.9,9.43,9.43,0,0,0,5.88,8.82,9.86,9.86,0,0,0,3.9.76,10,10,0,0,0,3.94-.77,9.57,9.57,0,0,0,5.19-5.14,9.36,9.36,0,0,0,.75-3.74Zm-4.26.07a6.83,6.83,0,0,1-.38,2.29A5.42,5.42,0,0,1,155.59,26a5.58,5.58,0,0,1-2.31.47A5.35,5.35,0,0,1,151,26a5.6,5.6,0,0,1-2.93-3.18,6.5,6.5,0,0,1-.42-2.33,6.82,6.82,0,0,1,.38-2.28,5.33,5.33,0,0,1,5.14-3.62,5.3,5.3,0,0,1,4,1.77,5.75,5.75,0,0,1,1.16,1.9,6.3,6.3,0,0,1,.42,2.3Zm14.51-9.15v-1c0-1.86.82-2.8,2.45-2.8a6.2,6.2,0,0,1,1.27.13,10.49,10.49,0,0,1,1.21.33V4.47a12.69,12.69,0,0,0-1.5-.35A10.77,10.77,0,0,0,174.85,4a5.7,5.7,0,0,0-4.22,1.48A6.25,6.25,0,0,0,169.15,10v1.33h-2.34v3.53h2.34V29.69h4.26V14.88h4.82v-3.5Zm14,3.46h5v-3.6h-5V6.18H183v5.06h-2.34v3.6H183v9.74a7.35,7.35,0,0,0,.39,2.57,4,4,0,0,0,1.11,1.66,4.27,4.27,0,0,0,1.71.91,7.64,7.64,0,0,0,2.14.28,8.31,8.31,0,0,0,2.1-.24,8,8,0,0,0,1.71-.7V25.6a5.78,5.78,0,0,1-2.62.63,2.41,2.41,0,0,1-1.68-.54,2.29,2.29,0,0,1-.59-1.77V14.84Zm24.18-3.67h-3.59L203.8,23.89l-3.7-12.65h-4.34l6,18.59h3.77l4.16-12.61,4.12,12.61h3.77l6.05-18.59h-4.23l-3.77,12.65-4.13-12.72ZM243,29.69V18.75A7.86,7.86,0,0,0,241,13c-1.33-1.37-3.36-2-6.11-2a15.55,15.55,0,0,0-3.88.42,19,19,0,0,0-3.14,1.12L229,15.89a18.6,18.6,0,0,1,2.48-.84,11.31,11.31,0,0,1,2.8-.31,5,5,0,0,1,3.37,1,3.65,3.65,0,0,1,1.17,2.93v.46a16.58,16.58,0,0,0-2.26-.56,16.4,16.4,0,0,0-2.84-.21,11.34,11.34,0,0,0-3,.37,7,7,0,0,0-2.38,1.1,5.06,5.06,0,0,0-1.55,1.85,5.81,5.81,0,0,0-.56,2.62v.07a5.37,5.37,0,0,0,.54,2.46,5.43,5.43,0,0,0,1.43,1.78,6.15,6.15,0,0,0,2.08,1.08,8.3,8.3,0,0,0,2.52.37,7.61,7.61,0,0,0,3.56-.77,7.92,7.92,0,0,0,2.41-1.88v2.27ZM238.89,23a3.45,3.45,0,0,1-.37,1.59,3.69,3.69,0,0,1-1,1.23,5,5,0,0,1-1.56.78,6.3,6.3,0,0,1-1.93.28,4.39,4.39,0,0,1-2.54-.7,2.3,2.3,0,0,1-1-2V24.1a2.51,2.51,0,0,1,1.12-2.2,5.38,5.38,0,0,1,3.11-.77,12.36,12.36,0,0,1,2.32.21,10.85,10.85,0,0,1,1.91.52V23Zm14.19-.34a10,10,0,0,1,.46-3.2,6.14,6.14,0,0,1,1.29-2.29,5.36,5.36,0,0,1,2-1.36,7,7,0,0,1,2.55-.46h.25V10.89a6,6,0,0,0-4.06,1.16,8.12,8.12,0,0,0-2.48,3.35V11.24h-4.26V29.69h4.26v-7Zm13.57-.7h13.56c0-.21,0-.41.05-.6s0-.37,0-.56a12.94,12.94,0,0,0-.56-3.8,9.63,9.63,0,0,0-1.66-3.18,8.1,8.1,0,0,0-2.76-2.17,8.87,8.87,0,0,0-3.86-.8,8.39,8.39,0,0,0-3.64.77A8.88,8.88,0,0,0,265,13.71a9.22,9.22,0,0,0-1.87,3.05,10.51,10.51,0,0,0-.66,3.74,10.15,10.15,0,0,0,.73,3.93,9,9,0,0,0,5,5,9.93,9.93,0,0,0,3.72.7,9.51,9.51,0,0,0,4.39-.95,10.26,10.26,0,0,0,3.16-2.51L277,24.45a9.06,9.06,0,0,1-2.27,1.64,6.24,6.24,0,0,1-2.73.56,5.2,5.2,0,0,1-3.49-1.21A5.55,5.55,0,0,1,266.65,22Zm0-2.8a6.05,6.05,0,0,1,1.55-3.51,4.25,4.25,0,0,1,3.23-1.34,4.31,4.31,0,0,1,1.87.38,4.59,4.59,0,0,1,1.42,1,4.86,4.86,0,0,1,.94,1.54,7.33,7.33,0,0,1,.45,1.9Z"/></g></g></svg>