<svg xmlns="http://www.w3.org/2000/svg" viewBox="0 0 281.66 39.44"><defs><style>.cls-1{stroke:#000;stroke-miterlimit:10;}.cls-1,.cls-2{fill-rule:evenodd;}</style></defs><title>as_logo_plustextblakAsset 1xhdpi</title><g id="Layer_2" data-name="Layer 2"><g id="Layer_1-2" data-name="Layer 1"><path class="cls-1" d="M25,15.87h0L27.21,12l2.23,3.87h4.44L29.43,8.18,27.21,4.34,22.77,12l-2.23,3.86-2.22,3.84-.26.45-2,3.4H33.88l2.21,3.83h0l2.22,3.84h0l2.22,3.84H18.32L16.1,38.94H42.75L45,35.1l-2.22-3.84h0l-2.22-3.84-2.22-3.84-.81-1.41h0l-1.41-2.44H22.76v0L25,15.87ZM13.89,35.1l-2.22,3.84H2.8L.58,35.1,20.55.5H25L22.77,4.34,16,16.12,5,35.1H9.45l2.22-3.84,2.22-3.84H31.66l2.22,3.84H16.1Z"/><path class="cls-2" d="M64.28,13.82a5.82,5.82,0,0,1,4,1.25,4.66,4.66,0,0,1,1.43,3.7v.64a21.1,21.1,0,0,0-2.53-.57,19.51,19.51,0,0,0-3.06-.21A11.89,11.89,0,0,0,61,19a7.77,7.77,0,0,0-2.45,1.12A4.9,4.9,0,0,0,56.91,22a5.43,5.43,0,0,0-.56,2.54A5,5,0,0,0,56.93,27a5.39,5.39,0,0,0,1.54,1.78,6.82,6.82,0,0,0,2.18,1.07,8.93,8.93,0,0,0,2.47.35,7.77,7.77,0,0,0,4-.95,8.91,8.91,0,0,0,2.55-2.18v2.74h2.59V18.74a7,7,0,0,0-2-5.46,8.13,8.13,0,0,0-5.72-1.84,14,14,0,0,0-3.54.4A18.16,18.16,0,0,0,58,13l.81,2.21a16.42,16.42,0,0,1,2.58-1,11.08,11.08,0,0,1,2.93-.37Zm.12,6.81a16.62,16.62,0,0,1,3,.25c.88.16,1.65.34,2.33.53v1.75a4.19,4.19,0,0,1-.47,2A4.83,4.83,0,0,1,68,26.69a6.39,6.39,0,0,1-1.92,1,7.53,7.53,0,0,1-2.36.37,6.2,6.2,0,0,1-1.74-.25,4.48,4.48,0,0,1-1.45-.72,3.6,3.6,0,0,1-1-1.14,3.08,3.08,0,0,1-.37-1.54,3.31,3.31,0,0,1,1.36-2.78,6.49,6.49,0,0,1,3.92-1Zm32.79.11a10.26,10.26,0,0,0-.74-4,9,9,0,0,0-2-3,8.55,8.55,0,0,0-6-2.47,7.48,7.48,0,0,0-4.18,1.21,8.12,8.12,0,0,0-1.53,1.28,13.93,13.93,0,0,0-1.24,1.54V11.68H78.86V35.45h2.71V26.36a11,11,0,0,0,1.21,1.47,7.65,7.65,0,0,0,1.53,1.23,7.75,7.75,0,0,0,1.89.84,8.08,8.08,0,0,0,2.32.32,8.33,8.33,0,0,0,3.21-.65,8.5,8.5,0,0,0,2.77-1.86,9.13,9.13,0,0,0,2-3,10.26,10.26,0,0,0,.74-4Zm-2.77,0a8,8,0,0,1-.51,2.95,6.63,6.63,0,0,1-1.37,2.21,5.8,5.8,0,0,1-2,1.36,6.66,6.66,0,0,1-2.47.47,6,6,0,0,1-2.44-.51,6.79,6.79,0,0,1-2.11-1.41A6.52,6.52,0,0,1,82,23.62a7.79,7.79,0,0,1,0-5.75,6.64,6.64,0,0,1,1.47-2.2,7,7,0,0,1,2.11-1.41A6,6,0,0,1,88,13.75a6.34,6.34,0,0,1,2.45.49,6,6,0,0,1,2,1.41,6.8,6.8,0,0,1,1.39,2.22,7.88,7.88,0,0,1,.51,2.9Zm26.9,0a10.08,10.08,0,0,0-.74-4,9,9,0,0,0-2-3,8.55,8.55,0,0,0-6-2.47,7.48,7.48,0,0,0-4.18,1.21A7.76,7.76,0,0,0,107,13.79a13,13,0,0,0-1.25,1.54V11.68H103V35.45h2.7V26.36a11,11,0,0,0,1.21,1.47,8.25,8.25,0,0,0,1.53,1.23,7.75,7.75,0,0,0,1.89.84,8.13,8.13,0,0,0,2.32.32,8.33,8.33,0,0,0,3.21-.65,8.65,8.65,0,0,0,2.78-1.86,9.27,9.27,0,0,0,1.94-3,10.08,10.08,0,0,0,.74-4Zm-2.77,0a8,8,0,0,1-.51,2.95,6.63,6.63,0,0,1-1.37,2.21,5.71,5.71,0,0,1-2,1.36,6.62,6.62,0,0,1-2.47.47,6.07,6.07,0,0,1-2.44-.51,6.91,6.91,0,0,1-2.11-1.41,6.52,6.52,0,0,1-1.47-2.22,7.79,7.79,0,0,1,0-5.75,6.64,6.64,0,0,1,1.47-2.2,7.09,7.09,0,0,1,2.11-1.41,6.07,6.07,0,0,1,2.44-.51,6.39,6.39,0,0,1,2.46.49,6.08,6.08,0,0,1,2,1.41A6.8,6.8,0,0,1,118,17.87a7.88,7.88,0,0,1,.51,2.9ZM140,24.36v-.08a4.11,4.11,0,0,0-.52-2.14,5.37,5.37,0,0,0-1.36-1.49,8.41,8.41,0,0,0-1.84-1c-.68-.28-1.36-.53-2-.74s-1.06-.33-1.57-.51a11.34,11.34,0,0,1-1.33-.56,3.28,3.28,0,0,1-.93-.67,1.17,1.17,0,0,1-.35-.86v-.07a1.62,1.62,0,0,1,.68-1.33,3.11,3.11,0,0,1,1.92-.53,7.88,7.88,0,0,1,2.52.47,14.23,14.23,0,0,1,2.71,1.29l1.68-3a12.72,12.72,0,0,0-3.26-1.55,12,12,0,0,0-3.55-.56,8.39,8.39,0,0,0-2.58.39,6.18,6.18,0,0,0-2.11,1.12,5.24,5.24,0,0,0-1.91,4.14v.07a4.36,4.36,0,0,0,.53,2.23,5,5,0,0,0,1.35,1.51,7.53,7.53,0,0,0,1.86,1c.69.26,1.37.49,2.05.7l1.57.48a7.85,7.85,0,0,1,1.33.52,2.9,2.9,0,0,1,.91.69,1.37,1.37,0,0,1,.34.91v.07a1.72,1.72,0,0,1-.76,1.46,3.59,3.59,0,0,1-2.12.54,8.52,8.52,0,0,1-3-.58,12.07,12.07,0,0,1-3.08-1.7l-1.89,2.88a13.09,13.09,0,0,0,3.81,2.07,12.42,12.42,0,0,0,4,.7,9.42,9.42,0,0,0,2.7-.37,6.37,6.37,0,0,0,2.2-1.08,5.17,5.17,0,0,0,1.46-1.81,5.85,5.85,0,0,0,.52-2.56Zm23.89-3.8a9.61,9.61,0,0,0-.74-3.75,9.34,9.34,0,0,0-2-3.07A9.68,9.68,0,0,0,158,11.66a10.18,10.18,0,0,0-3.95-.75,10,10,0,0,0-3.94.77A9.87,9.87,0,0,0,147,13.77a9.73,9.73,0,0,0-2.83,6.86,9.51,9.51,0,0,0,2.8,6.8,9.67,9.67,0,0,0,3.12,2.07,10.12,10.12,0,0,0,3.91.75,10,10,0,0,0,4-.77,9.54,9.54,0,0,0,3.14-2.09,9.67,9.67,0,0,0,2.07-3.07,9.29,9.29,0,0,0,.76-3.76Zm-4.28.07a6.65,6.65,0,0,1-.39,2.3,5.54,5.54,0,0,1-1.11,1.88,5.36,5.36,0,0,1-1.76,1.28,5.48,5.48,0,0,1-2.33.48,5.28,5.28,0,0,1-2.25-.48A5.66,5.66,0,0,1,150,24.81a5.76,5.76,0,0,1-1.16-1.91,6.56,6.56,0,0,1-.42-2.34,6.94,6.94,0,0,1,.38-2.3,5.52,5.52,0,0,1,1.12-1.87,5.42,5.42,0,0,1,1.76-1.29A5.49,5.49,0,0,1,158,16.4a6,6,0,0,1,1.17,1.92,6.32,6.32,0,0,1,.42,2.31Zm14.58-9.19v-1c0-1.87.82-2.81,2.46-2.81a6.33,6.33,0,0,1,1.28.12,11.21,11.21,0,0,1,1.21.34V4.49a12.39,12.39,0,0,0-1.51-.36A11.84,11.84,0,0,0,175.71,4a5.73,5.73,0,0,0-4.24,1.5A6.24,6.24,0,0,0,170,10.07V11.4h-2.35V15H170V29.83h4.28V15h4.84V11.44Zm14,3.47h5V11.3h-5V6.21h-4.28V11.3h-2.35v3.61h2.35v9.78a7.44,7.44,0,0,0,.39,2.59A4.09,4.09,0,0,0,185.44,29a4.4,4.4,0,0,0,1.72.92,8.16,8.16,0,0,0,2.15.28,7.88,7.88,0,0,0,2.11-.25,7.39,7.39,0,0,0,1.72-.7V25.72a5.74,5.74,0,0,1-2.64.64,2.43,2.43,0,0,1-1.68-.55,2.3,2.3,0,0,1-.6-1.78V14.91Zm24.31-3.68h-3.62L204.81,24l-3.72-12.7h-4.36l6,18.67h3.79L210.7,17.3,214.85,30h3.79l6.07-18.67h-4.25L216.67,24l-4.14-12.77Zm31.64,18.6v-11a7.89,7.89,0,0,0-2-5.77Q240.18,11,236,11a15.68,15.68,0,0,0-3.9.43A19.5,19.5,0,0,0,229,12.56l1.16,3.4a18.84,18.84,0,0,1,2.5-.84,11.26,11.26,0,0,1,2.8-.31,5.06,5.06,0,0,1,3.39,1A3.69,3.69,0,0,1,240,18.77v.46a17.92,17.92,0,0,0-2.27-.56,16.49,16.49,0,0,0-2.86-.21,11.47,11.47,0,0,0-3,.37,7,7,0,0,0-2.39,1.1,5.22,5.22,0,0,0-1.56,1.86,5.9,5.9,0,0,0-.56,2.64v.07A5.41,5.41,0,0,0,227.9,27a5.63,5.63,0,0,0,1.44,1.79,6.4,6.4,0,0,0,2.09,1.09,8.74,8.74,0,0,0,2.53.37,7.7,7.7,0,0,0,3.58-.77,8,8,0,0,0,2.42-1.9v2.28Zm-4.1-6.7a3.51,3.51,0,0,1-.37,1.59,3.6,3.6,0,0,1-1,1.23,5,5,0,0,1-1.56.79,6.43,6.43,0,0,1-1.95.28,4.41,4.41,0,0,1-2.54-.7,2.32,2.32,0,0,1-1-2v-.07A2.54,2.54,0,0,1,232.7,22a5.47,5.47,0,0,1,3.12-.77,12.39,12.39,0,0,1,2.33.21,10.93,10.93,0,0,1,1.92.53v1.16Zm14.27-.35a10.48,10.48,0,0,1,.45-3.22,6.34,6.34,0,0,1,1.3-2.3,5.54,5.54,0,0,1,2-1.37,7,7,0,0,1,2.56-.45h.25v-4.5a6,6,0,0,0-4.07,1.16,8.16,8.16,0,0,0-2.49,3.37V11.3h-4.29V29.83h4.29v-7ZM268,22.07h13.62c0-.21,0-.41.06-.59s0-.38,0-.57a12.75,12.75,0,0,0-.56-3.82,9.39,9.39,0,0,0-1.67-3.2,8,8,0,0,0-2.77-2.17,8.76,8.76,0,0,0-3.88-.81,8.59,8.59,0,0,0-3.65.77,9.14,9.14,0,0,0-2.86,2.09,9.51,9.51,0,0,0-1.88,3.07,10.59,10.59,0,0,0-.67,3.76,10.22,10.22,0,0,0,.74,3.95,9,9,0,0,0,5,5,9.84,9.84,0,0,0,3.74.7,9.4,9.4,0,0,0,4.4-.95,10.26,10.26,0,0,0,3.18-2.52l-2.49-2.21a9.23,9.23,0,0,1-2.28,1.65,6.32,6.32,0,0,1-2.74.56,5.31,5.31,0,0,1-3.51-1.21,5.64,5.64,0,0,1-1.83-3.5Zm0-2.81a6,6,0,0,1,1.56-3.52,4.65,4.65,0,0,1,5.12-1,4.5,4.5,0,0,1,1.43,1,4.86,4.86,0,0,1,.94,1.54,7.12,7.12,0,0,1,.46,1.91Z"/></g></g></svg>